
		<svg xmlns="http://www.w3.org/2000/svg" xmlns:xlink="http://www.w3.org/1999/xlink" version="1.1" width="3171.4285714285716" height="2070.3673469387754">
			
			<g transform="scale(8.571428571428571) translate(10, 10)">
				<defs id="SvgjsDefs1080"/><g id="SvgjsG1081" featureKey="k2wLtp-0" transform="matrix(0.8993499504005504,0,0,0.8993499504005504,130.5792209562949,39.72831422222422)" fill="#fff"><path xmlns="http://www.w3.org/2000/svg" d="M54.685,94.135c-2.541,0-4.814-0.201-6.376-0.472c-3.673-0.637-8.242-1.429-11.465-4.804  c-2.88-3.016-5.038-6.987-7.002-10.797c-0.367-0.713-0.661-1.648-0.971-2.641c-0.309-0.983-1.126-3.596-1.696-3.691  c-0.717-0.121-1.443-0.194-2.146-0.266c-1.867-0.188-3.799-0.382-5.761-1.46c-5.361-2.95-8.416-6.292-9.338-10.216  c-1.197-5.088-0.25-11.305,0.566-15.539c1.406-7.296,3.631-11.225,6.802-12.012c2.561-0.639,4.051,1.395,5.036,2.738  c1.174,1.601,1.319,1.514,1.663,1.319c1.656-0.936,2.674-3.922,3.416-6.104c0.119-0.353,0.233-0.688,0.344-0.996  c2.168-6.071,4.647-11.218,9.699-16.601l0.101-0.108c2.137-2.276,4.794-5.11,8.033-6.223c3.227-1.108,8.892,0.241,11.264,2.125  c0.326,0.225,5.576,3.882,10.643,7.792c0.67-0.486,1.439-0.969,2.322-1.449c2.683-1.46,5.795-1.56,8.765-0.278  c3.87,1.671,7.108,5.553,8.249,9.888c0.994,3.776-0.765,7.257-4.589,9.085c-0.857,0.41-1.792,0.724-2.773,0.937  c0.169,2.865,0.033,5.718-0.079,8.071c-0.05,1.033-0.093,1.945-0.104,2.713c4.958,7.6,9.625,15.195,10.482,17.527  c1.791,4.871,0.479,8.031-0.938,9.825c-3.364,4.262-10.856,5.458-16.784,4.755c-1.354-0.16-2.751-0.6-4.231-1.063  c-2.616-0.821-5.322-1.669-7.303-0.696c-0.56,0.275-1.265,1.368-1.338,2.367c-0.033,0.451,0.068,0.762,0.303,0.923  c1.39,0.956,3.063,0.882,5.003,0.8c2.357-0.1,5.029-0.217,7.571,1.62c0.24,0.173,0.416,0.419,0.502,0.701  c0.862,2.841,0.39,5.392-1.367,7.38C67.852,93.062,60.551,94.135,54.685,94.135z M18.213,34.822c-0.086,0-0.173,0.012-0.265,0.034  c-1.136,0.282-3.269,1.943-4.803,9.904c-0.77,3.99-1.668,9.826-0.589,14.411c0.737,3.139,3.357,5.908,8.011,8.469  c1.479,0.812,2.986,0.965,4.731,1.141c0.747,0.074,1.52,0.152,2.325,0.289c2.201,0.369,3.062,3.119,3.821,5.545  c0.275,0.878,0.535,1.707,0.795,2.211c1.873,3.635,3.923,7.414,6.555,10.17c2.417,2.531,5.801,3.285,9.974,4.008  c6.134,1.064,16.925,0.426,20.396-3.503c1.047-1.185,1.353-2.614,0.93-4.358c-1.686-1.026-3.542-0.946-5.499-0.86  c-2.217,0.096-4.513,0.195-6.646-1.272c-1.05-0.721-1.571-1.908-1.466-3.344c0.139-1.891,1.359-3.865,2.84-4.592  c2.95-1.447,6.325-0.389,9.301,0.544c1.356,0.425,2.637,0.827,3.74,0.958c5.021,0.598,11.646-0.323,14.349-3.747  c1.438-1.822,1.615-4.253,0.522-7.222c-0.819-2.231-5.49-9.791-10.396-17.293c-0.023-0.033-0.046-0.067-0.066-0.103  c-4.274-6.532-8.715-13.004-10.936-15.861c-0.134-0.136-0.264-0.276-0.393-0.419c-0.231,1.5-0.729,3.089-1.798,4.763  c-1.236,1.937-3.508,3.287-6.57,3.906c-4.548,0.918-10.283,0.026-13.333-2.08c-1.308-0.902-2.114-2.191-2.336-3.729  c-0.368-2.564,0.955-5.27,2.315-6.947c2.305-2.842,6.011-4.102,10.729-3.643c3.355,0.326,6.175,1.083,8.518,2.295  c0.085-2.159,0.496-4.344,2.461-6.498c-4.986-3.823-10.1-7.385-10.187-7.446c-1.951-1.546-6.677-2.46-8.777-1.737  c-2.606,0.895-5.01,3.458-6.942,5.517l-0.102,0.108c-4.732,5.042-7.07,9.908-9.124,15.662c-0.106,0.296-0.217,0.619-0.332,0.958  c-0.883,2.592-2.09,6.142-4.644,7.583c-2.577,1.455-4.197-0.753-5.165-2.073C19.244,35.326,18.771,34.822,18.213,34.822z   M71.777,33.979c1.514,2.173,3.221,4.686,4.966,7.309c0.092-2.013,0.167-4.322,0.044-6.605  C75.141,34.728,73.429,34.501,71.777,33.979z M52.636,24.81c-2.361,0-5.062,0.571-6.817,2.735c-1.259,1.551-1.941,3.459-1.74,4.863  c0.114,0.796,0.506,1.415,1.196,1.891c2.472,1.706,7.419,2.432,11.268,1.656c1.623-0.328,3.778-1.065,4.83-2.712  c1.264-1.98,1.515-3.794,1.563-5.642c-2.231-1.468-5.116-2.361-8.744-2.713C53.701,24.84,53.177,24.81,52.636,24.81z M67.79,28.491  c2.422,2.474,5.678,3.566,8.747,3.518c-0.365-2.616-1.112-5.015-2.544-6.662c-1.258-1.446-3.706-3.534-6.43-5.688  c-1.921,2.017-1.919,4.037-1.918,6.548c0,0.013,0,0.025,0,0.038c0.325,0.264,0.636,0.541,0.936,0.831  c0.013,0.013,0.026,0.025,0.038,0.038C66.893,27.382,67.292,27.854,67.79,28.491z M69.718,17.925  c2.646,2.115,5.02,4.167,6.312,5.651c1.83,2.105,2.747,5.011,3.179,8.087c0.658-0.167,1.287-0.391,1.871-0.67  c1.259-0.601,4.085-2.387,3.145-5.963c-0.938-3.564-3.572-6.743-6.709-8.098c-1.55-0.669-3.921-1.182-6.407,0.17  C70.599,17.38,70.137,17.654,69.718,17.925z"/></g><g id="SvgjsG1082" featureKey="wTfgVX-0" transform="matrix(3.373499433548712,0,0,3.373499433548712,-2.372255601234765,102.79033580089799)" fill="#fff"><path d="M7.002 19.45312 q-0.341796875 0.21484375 -0.625 0.3662109375 t-0.56641 0.24414 t-0.58594 0.13672 t-0.66406 0.043945 q-0.908203125 0 -1.625976563 -0.2490234375 t-1.2109 -0.68359 t-0.75684 -1.0254 t-0.26367 -1.2842 q0 -0.703125 0.2685546875 -1.298828125 t0.77637 -1.0205 t1.2451 -0.66406 t1.6846 -0.23926 q0.693359375 0 1.264648438 0.0732421875 t1.0596 0.18066 l0 -0.3125 q0 -0.380859375 -0.146484375 -0.6591796875 t-0.41016 -0.45898 t-0.63477 -0.26367 t-0.81055 -0.083008 q-0.91796875 0 -1.616210938 0.1806640625 t-1.3428 0.52246 l-0.9375 -1.8945 q0.99609375 -0.68359375 2.084960938 -1.044921875 t2.3096 -0.36133 q0.947265625 0 1.752929688 0.2099609375 t1.3818 0.68359 t0.90332 1.2354 t0.32715 1.8555 l0 3.6816 l1.3574 0 l0 2.6758 l-4.2188 0 l0 -0.54688 z M4.7754 17.9395 q0.693359375 0 1.259765625 -0.224609375 t0.9668 -0.54688 l0 -1.2891 l-2.3438 0 q-0.224609375 0 -0.439453125 0.068359375 t-0.38574 0.19531 t-0.27344 0.3125 t-0.10254 0.42969 q0 0.44921875 0.3271484375 0.751953125 t0.99121 0.30273 z M13.6621 9.883 l4.4141 0 l0 0.14648 q0.46875 -0.205078125 0.95703125 -0.3271484375 t1.0059 -0.12207 q1.11328125 0 2.0703125 0.419921875 t1.6602 1.1426 t1.0986 1.6895 t0.39551 2.0508 q0 1.09375 -0.3857421875 2.060546875 t-1.0791 1.6846 t-1.6553 1.1328 t-2.1045 0.41504 q-0.64453125 0 -1.201171875 -0.1220703125 t-1.0742 -0.34668 l0 2.2168 l1.9336 0 l0 2.6758 l-6.6016 0 l0 -2.6758 l1.6602 0 l0 -9.3652 l-1.0938 0 l0 -2.6758 z M19.8242 12.275400000000001 q-0.615234375 0 -1.15234375 0.322265625 t-0.9082 0.9082 l0 2.8516 q0.3125 0.498046875 0.849609375 0.810546875 t1.2109 0.3125 q0.498046875 0 0.947265625 -0.1904296875 t0.78125 -0.53711 t0.52734 -0.82031 t0.19531 -1.0303 q0 -0.615234375 -0.1904296875 -1.103515625 t-0.52246 -0.8252 t-0.78125 -0.51758 t-0.95703 -0.18066 z M27.021475 9.883 l4.4141 0 l0 0.14648 q0.46875 -0.205078125 0.95703125 -0.3271484375 t1.0059 -0.12207 q1.11328125 0 2.0703125 0.419921875 t1.6602 1.1426 t1.0986 1.6895 t0.39551 2.0508 q0 1.09375 -0.3857421875 2.060546875 t-1.0791 1.6846 t-1.6553 1.1328 t-2.1045 0.41504 q-0.64453125 0 -1.201171875 -0.1220703125 t-1.0742 -0.34668 l0 2.2168 l1.9336 0 l0 2.6758 l-6.6016 0 l0 -2.6758 l1.6602 0 l0 -9.3652 l-1.0938 0 l0 -2.6758 z M33.183575 12.275400000000001 q-0.615234375 0 -1.15234375 0.322265625 t-0.9082 0.9082 l0 2.8516 q0.3125 0.498046875 0.849609375 0.810546875 t1.2109 0.3125 q0.498046875 0 0.947265625 -0.1904296875 t0.78125 -0.53711 t0.52734 -0.82031 t0.19531 -1.0303 q0 -0.615234375 -0.1904296875 -1.103515625 t-0.52246 -0.8252 t-0.78125 -0.51758 t-0.95703 -0.18066 z M45.98635 4.805 l4.4238 0 l0 12.52 l1.9727 0 l0 2.6758 l-4.9805 0 l0 -0.39063 q-0.52734375 0.2734375 -1.079101563 0.4296875 t-1.1182 0.15625 q-1.162109375 0 -2.133789063 -0.4150390625 t-1.6699 -1.1377 t-1.0889 -1.6943 t-0.39063 -2.085 t0.38574 -2.0752 t1.0742 -1.6748 t1.6504 -1.123 t2.1143 -0.41016 q0.634765625 0 1.19140625 0.1220703125 t1.0645 0.34668 l0 -2.5684 l-1.416 0 l0 -2.6758 z M45.37105 17.5 q0.64453125 -0.01953125 1.166992188 -0.33203125 t0.86426 -0.82031 l0 -2.9785 q-0.341796875 -0.517578125 -0.8837890625 -0.8056640625 t-1.1475 -0.27832 q-0.5078125 -0.009765625 -0.9521484375 0.17578125 t-0.78125 0.52734 t-0.53223 0.82031 t-0.19531 1.084 q0 0.595703125 0.1953125 1.079101563 t0.53223 0.82031 t0.78125 0.5127 t0.95215 0.19531 z M59.892625 19.45312 q-0.341796875 0.21484375 -0.625 0.3662109375 t-0.56641 0.24414 t-0.58594 0.13672 t-0.66406 0.043945 q-0.908203125 0 -1.625976563 -0.2490234375 t-1.2109 -0.68359 t-0.75684 -1.0254 t-0.26367 -1.2842 q0 -0.703125 0.2685546875 -1.298828125 t0.77637 -1.0205 t1.2451 -0.66406 t1.6846 -0.23926 q0.693359375 0 1.264648438 0.0732421875 t1.0596 0.18066 l0 -0.3125 q0 -0.380859375 -0.146484375 -0.6591796875 t-0.41016 -0.45898 t-0.63477 -0.26367 t-0.81055 -0.083008 q-0.91796875 0 -1.616210938 0.1806640625 t-1.3428 0.52246 l-0.9375 -1.8945 q0.99609375 -0.68359375 2.084960938 -1.044921875 t2.3096 -0.36133 q0.947265625 0 1.752929688 0.2099609375 t1.3818 0.68359 t0.90332 1.2354 t0.32715 1.8555 l0 3.6816 l1.3574 0 l0 2.6758 l-4.2188 0 l0 -0.54688 z M57.666025 17.9395 q0.693359375 0 1.259765625 -0.224609375 t0.9668 -0.54688 l0 -1.2891 l-2.3438 0 q-0.224609375 0 -0.439453125 0.068359375 t-0.38574 0.19531 t-0.27344 0.3125 t-0.10254 0.42969 q0 0.44921875 0.3271484375 0.751953125 t0.99121 0.30273 z M72.158225 4.805 l4.4238 0 l0 12.52 l1.9727 0 l0 2.6758 l-4.9805 0 l0 -0.39063 q-0.52734375 0.2734375 -1.079101563 0.4296875 t-1.1182 0.15625 q-1.162109375 0 -2.133789063 -0.4150390625 t-1.6699 -1.1377 t-1.0889 -1.6943 t-0.39063 -2.085 t0.38574 -2.0752 t1.0742 -1.6748 t1.6504 -1.123 t2.1143 -0.41016 q0.634765625 0 1.19140625 0.1220703125 t1.0645 0.34668 l0 -2.5684 l-1.416 0 l0 -2.6758 z M71.542925 17.5 q0.64453125 -0.01953125 1.166992188 -0.33203125 t0.86426 -0.82031 l0 -2.9785 q-0.341796875 -0.517578125 -0.8837890625 -0.8056640625 t-1.1475 -0.27832 q-0.5078125 -0.009765625 -0.9521484375 0.17578125 t-0.78125 0.52734 t-0.53223 0.82031 t-0.19531 1.084 q0 0.595703125 0.1953125 1.079101563 t0.53223 0.82031 t0.78125 0.5127 t0.95215 0.19531 z M85.8301 4.805 l4.4238 0 l0 12.52 l1.9727 0 l0 2.6758 l-4.9805 0 l0 -0.39063 q-0.52734375 0.2734375 -1.079101563 0.4296875 t-1.1182 0.15625 q-1.162109375 0 -2.133789063 -0.4150390625 t-1.6699 -1.1377 t-1.0889 -1.6943 t-0.39063 -2.085 t0.38574 -2.0752 t1.0742 -1.6748 t1.6504 -1.123 t2.1143 -0.41016 q0.634765625 0 1.19140625 0.1220703125 t1.0645 0.34668 l0 -2.5684 l-1.416 0 l0 -2.6758 z M85.2148 17.5 q0.64453125 -0.01953125 1.166992188 -0.33203125 t0.86426 -0.82031 l0 -2.9785 q-0.341796875 -0.517578125 -0.8837890625 -0.8056640625 t-1.1475 -0.27832 q-0.5078125 -0.009765625 -0.9521484375 0.17578125 t-0.78125 0.52734 t-0.53223 0.82031 t-0.19531 1.084 q0 0.595703125 0.1953125 1.079101563 t0.53223 0.82031 t0.78125 0.5127 t0.95215 0.19531 z M93.232425 9.883 l4.9609 0 l0 2.6758 l-0.78125 0 l1.4551 3.7891 l1.4941 -3.7891 l-0.86914 0 l0 -2.6758 l4.9609 0 l0 2.6758 l-1.1035 0 l-3.916 9.3652 l1.7383 0 l0 2.6758 l-6.2793 0 l0 -2.6758 l1.7676 0 l0.76172 -1.9238 l-3.1641 -7.4414 l-1.0254 0 l0 -2.6758 z"/></g><g id="SvgjsG1083" featureKey="XDIVJY-0" transform="matrix(1.1789475102877292,0,0,1.1789475102877292,55.22189538526919,197.5393676211366)" fill="#fff"><path d="M5.88 5.48 c1.84 0 3.2 0.54006 4.08 1.6201 l-1.56 1.42 c-0.24 -0.37334 -0.58 -0.67334 -1.02 -0.9 s-0.94666 -0.34 -1.52 -0.34 c-0.82666 0 -1.49 0.20334 -1.99 0.61 s-0.75 0.93 -0.75 1.57 c0 1.0667 0.70666 1.8133 2.12 2.24 l1.78 0.58 c1 0.32 1.7633 0.76666 2.29 1.34 s0.79 1.36 0.79 2.36 c0 1.3067 -0.46334 2.3634 -1.39 3.17 s-2.1034 1.21 -3.53 1.21 c-2.04 0 -3.5466 -0.65334 -4.52 -1.96 l1.58 -1.36 c0.30666 0.48 0.72666 0.85334 1.26 1.12 s1.1133 0.4 1.74 0.4 c0.78666 0 1.4533 -0.22666 2 -0.68 s0.82 -1.0133 0.82 -1.68 c0 -0.49334 -0.16666 -0.90668 -0.5 -1.24 s-0.93334 -0.63334 -1.8 -0.9 l-1.26 -0.42 c-1.2667 -0.42666 -2.1534 -0.97 -2.66 -1.63 s-0.76 -1.51 -0.76 -2.55 c0 -1.1067 0.44666 -2.0466 1.34 -2.82 s2.0466 -1.16 3.46 -1.16 z M33.072 5.48 c2.1066 0 3.8634 0.69998 5.27 2.1 s2.11 3.18 2.11 5.34 c0 1.3733 -0.31334 2.63 -0.94 3.77 s-1.51 2.0366 -2.65 2.69 s-2.4034 0.98 -3.79 0.98 c-1.3733 0 -2.6266 -0.32334 -3.76 -0.97 s-2.02 -1.54 -2.66 -2.68 s-0.96 -2.4034 -0.96 -3.79 c0 -2.1066 0.69 -3.8734 2.07 -5.3 s3.15 -2.14 5.31 -2.14 z M27.732000000000003 12.92 c0 1.6 0.49998 2.94 1.5 4.02 s2.28 1.62 3.84 1.62 c1.5333 0 2.8066 -0.53334 3.82 -1.6 s1.52 -2.4134 1.52 -4.04 c0 -1.6133 -0.5 -2.9566 -1.5 -4.03 s-2.2866 -1.61 -3.86 -1.61 c-1.52 0 -2.7866 0.53334 -3.8 1.6 s-1.52 2.4134 -1.52 4.04 z M65.744 5.84 l0 1.8 l-6.98 0 l0 4.44 l6.5 0 l0 1.8 l-6.5 0 l0 6.12 l-1.92 0 l0 -14.16 l8.9 0 z M91.396 5.84 l0 1.8 l-4.56 0 l0 12.36 l-1.92 0 l0 -12.36 l-4.56 0 l0 -1.8 l11.04 0 z M114.84799999999998 8.44 l-3.42 11.56 l-2.02 0 l-4.14 -14.16 l2 0 l3.12 11.32 l0.04 0 l3.34 -11.32 l2.2 0 l3.34 11.32 l0.04 0 l3.12 -11.32 l2 0 l-4.12 14.16 l-2.02 0 l-3.44 -11.56 l-0.04 0 z M146.12 5.84 l6.06 14.16 l-2.24 0 l-1.42 -3.5 l-6.74 0 l-1.4 3.5 l-2.24 0 l6.24 -14.16 l1.74 0 z M142.46 14.82 l5.36 0 l-2.64 -6.5 l-0.04 0 z M172.732 5.84 c1.3867 0 2.4734 0.34666 3.26 1.04 s1.18 1.6667 1.18 2.92 c0 0.94666 -0.32334 1.7733 -0.97 2.48 s-1.4767 1.1267 -2.49 1.26 l-0.02 0 l4.02 6.46 l-2.4 0 l-3.6 -6.24 l-2.14 0 l0 6.24 l-1.92 0 l0 -14.16 l5.08 0 z M172.172 12.08 c1 0 1.7433 -0.18336 2.23 -0.55002 s0.73 -0.94332 0.73 -1.73 c0 -1.52 -0.98666 -2.28 -2.96 -2.28 l-2.6 0 l0 4.56 l2.6 0 z M202.644 5.84 l0 1.8 l-7.22 0 l0 4.22 l6.72 0 l0 1.8 l-6.72 0 l0 4.54 l7.58 0 l0 1.8 l-9.5 0 l0 -14.16 l9.14 0 z"/></g>
			</g>
		</svg>
	